<svg xmlns="http://www.w3.org/2000/svg" width="42" height="42" viewBox="0 0 42 42" fill="none">
  <defs>
    <linearGradient id="snFaviconGrad" x1="8" y1="5" x2="34" y2="37" gradientUnits="userSpaceOnUse">
      <stop stop-color="#2DD4BF" />
      <stop offset="0.55" stop-color="#00C896" />
      <stop offset="1" stop-color="#0F766E" />
    </linearGradient>
    <linearGradient id="snFaviconShine" x1="10" y1="8" x2="28" y2="24" gradientUnits="userSpaceOnUse">
      <stop stop-color="#FFFFFF" stop-opacity="0.42" />
      <stop offset="1" stop-color="#FFFFFF" stop-opacity="0" />
    </linearGradient>
  </defs>
  <rect width="42" height="42" rx="11" fill="url(#snFaviconGrad)" />
  <rect width="42" height="42" rx="11" fill="url(#snFaviconShine)" />
  <path d="M11 18.5L21 10.5L31 18.5" stroke="#FFFFFF" stroke-width="2.25" stroke-linecap="round" stroke-linejoin="round" />
  <path d="M14.5 18.5H27.5V29.5C27.5 30.05 27.05 30.5 26.5 30.5H15.5C14.95 30.5 14.5 30.05 14.5 29.5V18.5Z" fill="#FFFFFF" fill-opacity="0.96" />
  <path d="M18.25 24.25H23.75" stroke="#0D9488" stroke-width="1.8" stroke-linecap="round" />
  <circle cx="21" cy="27.1" r="1.35" fill="#0D9488" />
  <path d="M9.5 31.25C13.2 34.35 17.1 35.5 21 35.5C24.9 35.5 28.8 34.35 32.5 31.25" stroke="#FFFFFF" stroke-width="2" stroke-linecap="round" opacity="0.92" />
  <path d="M21 13.5V16.25" stroke="#FFFFFF" stroke-width="1.8" stroke-linecap="round" opacity="0.9" />
</svg>
